<svg width="40" height="40" viewBox="0 0 40 40" fill="none" xmlns="http://www.w3.org/2000/svg">
<g clip-path="url(#clip0_753_1221)">
<path d="M27.5 14.9999H25C25 13.6739 24.4732 12.4021 23.5355 11.4644C22.5979 10.5267 21.3261 9.99994 20 9.99994C18.6739 9.99994 17.4021 10.5267 16.4645 11.4644C15.5268 12.4021 15 13.6739 15 14.9999H12.5C11.837 14.9999 11.2011 15.2633 10.7322 15.7322C10.2634 16.201 10 16.8369 10 17.4999V25.8333C10.0013 26.9379 10.4407 27.997 11.2218 28.7781C12.003 29.5592 13.062 29.9986 14.1667 29.9999H25.8333C26.938 29.9986 27.997 29.5592 28.7782 28.7781C29.5593 27.997 29.9987 26.9379 30 25.8333V17.4999C30 16.8369 29.7366 16.201 29.2678 15.7322C28.7989 15.2633 28.163 14.9999 27.5 14.9999ZM20 11.6666C20.8841 11.6666 21.7319 12.0178 22.357 12.6429C22.9821 13.268 23.3333 14.1159 23.3333 14.9999H16.6667C16.6667 14.1159 17.0179 13.268 17.643 12.6429C18.2681 12.0178 19.1159 11.6666 20 11.6666ZM28.3333 25.8333C28.3333 26.4963 28.0699 27.1322 27.6011 27.601C27.1323 28.0699 26.4964 28.3333 25.8333 28.3333H14.1667C13.5036 28.3333 12.8677 28.0699 12.3989 27.601C11.9301 27.1322 11.6667 26.4963 11.6667 25.8333V17.4999C11.6667 17.2789 11.7545 17.067 11.9107 16.9107C12.067 16.7544 12.279 16.6666 12.5 16.6666H15V18.3333C15 18.5543 15.0878 18.7662 15.2441 18.9225C15.4004 19.0788 15.6123 19.1666 15.8333 19.1666C16.0543 19.1666 16.2663 19.0788 16.4226 18.9225C16.5789 18.7662 16.6667 18.5543 16.6667 18.3333V16.6666H23.3333V18.3333C23.3333 18.5543 23.4211 18.7662 23.5774 18.9225C23.7337 19.0788 23.9457 19.1666 24.1667 19.1666C24.3877 19.1666 24.5996 19.0788 24.7559 18.9225C24.9122 18.7662 25 18.5543 25 18.3333V16.6666H27.5C27.721 16.6666 27.933 16.7544 28.0893 16.9107C28.2455 17.067 28.3333 17.2789 28.3333 17.4999V25.8333Z" fill="white" fill-opacity="0.4"/>
</g>
<defs>
<clipPath id="clip0_753_1221">
<rect width="20" height="20" fill="white" transform="translate(10 9.99994)"/>
</clipPath>
</defs>
</svg>
