<svg width="40" height="40" viewBox="0 0 40 40" fill="none" xmlns="http://www.w3.org/2000/svg">
<rect y="-6.10352e-05" width="40" height="40" rx="20" fill="white"/>
<g clip-path="url(#clip0_753_1217)">
<path d="M21.115 10.6941C20.809 10.4186 20.4118 10.2662 20 10.2662C19.5882 10.2662 19.191 10.4186 18.885 10.6941L10 18.6908V27.3574C10 28.0647 10.281 28.743 10.781 29.2431C11.2811 29.7432 11.9594 30.0241 12.6667 30.0241H27.3333C28.0406 30.0241 28.7189 29.7432 29.219 29.2431C29.719 28.743 30 28.0647 30 27.3574V18.6908L21.115 10.6941ZM22.5 28.3549H17.5V24.1666C17.5 23.5036 17.7634 22.8677 18.2322 22.3988C18.7011 21.93 19.337 21.6666 20 21.6666C20.663 21.6666 21.2989 21.93 21.7678 22.3988C22.2366 22.8677 22.5 23.5036 22.5 24.1666V28.3549ZM28.3333 27.3549C28.3333 27.6202 28.228 27.8745 28.0404 28.062C27.8529 28.2496 27.5985 28.3549 27.3333 28.3549H24.1667V24.1666C24.1667 23.0615 23.7277 22.0017 22.9463 21.2203C22.1649 20.4389 21.1051 19.9999 20 19.9999C18.8949 19.9999 17.8351 20.4389 17.0537 21.2203C16.2723 22.0017 15.8333 23.0615 15.8333 24.1666V28.3549H12.6667C12.4015 28.3549 12.1471 28.2496 11.9596 28.062C11.772 27.8745 11.6667 27.6202 11.6667 27.3549V19.4324L20 11.9324L28.3333 19.4324V27.3549Z" fill="url(#paint0_linear_753_1217)"/>
</g>
<defs>
<linearGradient id="paint0_linear_753_1217" x1="10" y1="20.1451" x2="30" y2="20.1451" gradientUnits="userSpaceOnUse">
<stop stop-color="#462D85"/>
<stop offset="1" stop-color="#DB00FF"/>
</linearGradient>
<clipPath id="clip0_753_1217">
<rect width="20" height="20" fill="white" transform="translate(10 9.99994)"/>
</clipPath>
</defs>
</svg>
