<svg width="40" height="40" viewBox="0 0 40 40" fill="none" xmlns="http://www.w3.org/2000/svg">
<g clip-path="url(#clip0_753_1224)">
<path d="M29.3498 14.7858L26.8406 11.3958C26.532 10.9644 26.1251 10.6127 25.6535 10.37C25.182 10.1273 24.6593 10.0004 24.1289 9.99994H15.8706C15.3428 9.99945 14.8224 10.1243 14.3523 10.3642C13.8822 10.6041 13.4757 10.9523 13.1664 11.3799L10.6123 14.7941C10.1964 15.3805 9.98165 16.0858 10.0001 16.8045C10.0186 17.5232 10.2693 18.2165 10.7148 18.7808L18.0414 29.0541C18.2749 29.3498 18.5725 29.5885 18.9118 29.7524C19.251 29.9162 19.623 30.0009 19.9998 29.9999C20.383 29.9992 20.7609 29.9105 21.1044 29.7408C21.448 29.571 21.748 29.3247 21.9814 29.0208L29.2498 18.8616C29.7152 18.2891 29.9775 17.5784 29.9956 16.8408C30.0137 16.1032 29.7865 15.3804 29.3498 14.7858ZM25.4931 12.3758L28.0081 15.7741C28.0214 15.7924 28.0248 15.8141 28.0381 15.8333H23.9614L22.7714 11.6666H24.1289C24.3964 11.6674 24.6598 11.7322 24.8971 11.8556C25.1344 11.979 25.3388 12.1573 25.4931 12.3758ZM19.9998 25.9316L17.7498 17.4999H22.2498L19.9998 25.9316ZM17.7714 15.8333L18.9614 11.6666H21.0381L22.2281 15.8333H17.7714ZM14.5139 12.3641C14.6686 12.1486 14.8722 11.973 15.1081 11.8517C15.344 11.7304 15.6054 11.667 15.8706 11.6666H17.2281L16.0381 15.8333H11.9314C11.9431 15.8149 11.9464 15.7924 11.9598 15.7749L14.5139 12.3641ZM12.0398 17.7708C11.9796 17.6858 11.928 17.5951 11.8856 17.4999H16.0264L18.5214 26.8583L12.0398 17.7708ZM21.4756 26.8666L23.9756 17.4999H28.1306C28.0769 17.6243 28.009 17.7421 27.9281 17.8508L21.4756 26.8666Z" fill="white" fill-opacity="0.4"/>
</g>
<defs>
<clipPath id="clip0_753_1224">
<rect width="20" height="20" fill="white" transform="translate(10 9.99994)"/>
</clipPath>
</defs>
</svg>
