<svg width="40" height="40" viewBox="0 0 40 40" fill="none" xmlns="http://www.w3.org/2000/svg">
<g clip-path="url(#clip0_753_1227)">
<path d="M20 9.99994C14.4858 9.99994 10 14.4858 10 19.9999C10 25.5141 14.4858 29.9999 20 29.9999C25.5142 29.9999 30 25.5141 30 19.9999C30 14.4858 25.5142 9.99994 20 9.99994ZM16.6667 27.6366V27.4999C16.6667 25.6616 18.1617 24.1666 20 24.1666C21.8383 24.1666 23.3333 25.6616 23.3333 27.4999V27.6366C22.3117 28.0841 21.185 28.3333 20 28.3333C18.815 28.3333 17.6883 28.0841 16.6667 27.6366ZM24.9375 26.7091C24.5575 24.3266 22.4883 22.4999 20 22.4999C17.5117 22.4999 15.4433 24.3266 15.0625 26.7091C13.0042 25.1899 11.6667 22.7483 11.6667 19.9999C11.6667 15.4049 15.405 11.6666 20 11.6666C24.595 11.6666 28.3333 15.4049 28.3333 19.9999C28.3333 22.7483 26.9958 25.1899 24.9375 26.7091ZM20 14.1666C18.1617 14.1666 16.6667 15.6616 16.6667 17.4999C16.6667 19.3383 18.1617 20.8333 20 20.8333C21.8383 20.8333 23.3333 19.3383 23.3333 17.4999C23.3333 15.6616 21.8383 14.1666 20 14.1666ZM20 19.1666C19.0808 19.1666 18.3333 18.4191 18.3333 17.4999C18.3333 16.5808 19.0808 15.8333 20 15.8333C20.9192 15.8333 21.6667 16.5808 21.6667 17.4999C21.6667 18.4191 20.9192 19.1666 20 19.1666Z" fill="white" fill-opacity="0.4"/>
</g>
<defs>
<clipPath id="clip0_753_1227">
<rect width="20" height="20" fill="white" transform="translate(10 9.99994)"/>
</clipPath>
</defs>
</svg>
